<?xml version="1.0" encoding="UTF-8"?>
<svg xmlns="http://www.w3.org/2000/svg" xmlns:xlink="http://www.w3.org/1999/xlink" viewBox="0 0 96 96" width="96px" height="96px">
<g id="surface963725">
<path style=" stroke:none;fill-rule:nonzero;fill:rgb(100%,100%,100%);fill-opacity:1;" d="M 48 8 C 25.90625 8 8 25.90625 8 48 C 8 68.050781 22.773438 84.613281 42.019531 87.503906 L 42.019531 58.601562 L 32.125 58.601562 L 32.125 48.085938 L 42.019531 48.085938 L 42.019531 41.089844 C 42.019531 29.503906 47.664062 24.421875 57.292969 24.421875 C 61.902344 24.421875 64.339844 24.761719 65.496094 24.914062 L 65.496094 34.09375 L 58.929688 34.09375 C 54.839844 34.09375 53.410156 37.96875 53.410156 42.335938 L 53.410156 48.085938 L 65.390625 48.085938 L 63.769531 58.601562 L 53.414062 58.601562 L 53.414062 87.589844 C 72.941406 84.945312 88 68.246094 88 48 C 88 25.90625 70.09375 8 48 8 Z M 48 8 "/>
</g>
</svg>
